<svg width="44" height="44" viewBox="0 0 44 44" fill="none" xmlns="http://www.w3.org/2000/svg">
    <g clip-path="url(#clip0)">
    <path d="M39.074 2.7969C36.7235 2.78857 34.8148 4.69727 34.8065 7.04773C34.8065 8.15628 35.2316 9.22316 36.0067 10.015L28.2136 25.6097C28.0469 25.5847 27.8718 25.5597 27.6968 25.5597C27.1467 25.5597 26.5966 25.668 26.0881 25.8764L20.037 19.0667C20.387 18.4416 20.5787 17.7415 20.5871 17.0163C20.5871 14.6576 18.6784 12.7488 16.3196 12.7488C13.9608 12.7488 12.0521 14.6576 12.0521 17.0163C12.0604 18.0332 12.4271 19.0167 13.1023 19.7836L5.69249 32.7444C5.44244 32.6944 5.18405 32.6694 4.934 32.6694C2.57521 32.6694 0.666504 34.5781 0.666504 36.9369C0.666504 39.2957 2.57521 41.2044 4.934 41.2044C7.2928 41.2044 9.2015 39.2957 9.2015 36.9369C9.19317 35.92 8.82643 34.9365 8.1513 34.1697L15.5527 21.2088C16.3446 21.3672 17.1697 21.2838 17.9115 20.9671L23.9627 27.7768C23.6127 28.4019 23.4293 29.1104 23.4209 29.8272C23.4126 32.186 25.3213 34.103 27.6718 34.1113C30.0306 34.1197 31.9476 32.211 31.9559 29.8605C31.9559 28.752 31.5309 27.6768 30.7557 26.8766L38.5489 11.2819C38.7156 11.3069 38.8906 11.3319 39.0657 11.3319C41.4245 11.3319 43.3332 9.4232 43.3332 7.0644C43.3332 4.70561 41.4328 2.7969 39.074 2.7969Z" fill="#78695E"/>
    </g>
    <defs>
    <clipPath id="clip0">
    <rect width="42.6667" height="42.6667" fill="white" transform="translate(0.666504 0.666992)"/>
    </clipPath>
    </defs>
</svg>
