<svg width="44" height="44" viewBox="0 0 44 44" fill="none" xmlns="http://www.w3.org/2000/svg">
    <g clip-path="url(#clip0)">
    <path d="M22.0001 0.666992C10.2369 0.666992 0.666748 10.2371 0.666748 22.0003C0.666748 33.7635 10.2369 43.3337 22.0001 43.3337C33.7633 43.3337 43.3334 33.7631 43.3334 22.0003C43.3334 10.2371 33.7633 0.666992 22.0001 0.666992ZM22.0001 39.7964C12.1877 39.7964 4.20403 31.8123 4.20403 22.0003C4.20403 12.1879 12.1877 4.20427 22.0001 4.20427C31.8121 4.20427 39.7961 12.1879 39.7961 22.0003C39.7961 31.8123 31.8121 39.7964 22.0001 39.7964Z" fill="#78695E"/>
    <path d="M21.9996 7.9043C14.2268 7.9043 7.90308 14.2281 7.90308 22.0008C7.90308 29.7735 14.2268 36.0973 21.9996 36.0973C29.7723 36.0973 36.0961 29.7735 36.0961 22.0008C36.0961 14.2281 29.7723 7.9043 21.9996 7.9043ZM21.9996 32.56C16.1772 32.56 11.4404 27.8232 11.4404 22.0008C11.4404 16.1784 16.1772 11.4416 21.9996 11.4416C27.8219 11.4416 32.5588 16.1784 32.5588 22.0008C32.5588 27.8232 27.8219 32.56 21.9996 32.56Z" fill="#78695E"/>
    <path d="M22.0002 28.5805C25.6341 28.5805 28.58 25.6346 28.58 22.0007C28.58 18.3668 25.6341 15.4209 22.0002 15.4209C18.3663 15.4209 15.4204 18.3668 15.4204 22.0007C15.4204 25.6346 18.3663 28.5805 22.0002 28.5805Z" fill="#78695E"/>
    </g>
    <defs>
    <clipPath id="clip0">
    <rect width="42.6667" height="42.6667" fill="white" transform="translate(0.666748 0.666992)"/>
    </clipPath>
    </defs>
</svg>
