<svg width="42" height="42" viewBox="0 0 42 42" fill="none" xmlns="http://www.w3.org/2000/svg">
<g clip-path="url(#clip0)">
<path d="M41.1393 0.00561876C32.9406 -0.141381 23.5903 4.14437 17.6718 10.7926C12.0158 10.8994 6.50857 13.2181 2.45382 17.2729C2.21757 17.5056 2.13357 17.8539 2.23682 18.1689C2.34182 18.4856 2.61482 18.7149 2.94382 18.7621L9.68832 19.7281L8.85532 20.6609C8.54557 21.0074 8.56132 21.5341 8.89032 21.8631L20.1376 33.1104C20.3073 33.2801 20.5313 33.3659 20.7571 33.3659C20.9653 33.3659 21.1736 33.2924 21.3398 33.1436L22.2726 32.3106L23.2386 39.0551C23.2858 39.3841 23.5448 39.6256 23.8581 39.7306C23.9386 39.7569 24.0226 39.7691 24.1083 39.7691C24.3568 39.7691 24.6106 39.6606 24.7856 39.4874C28.7843 35.4886 31.1031 29.9814 31.2098 24.3254C37.8651 18.3946 42.1858 9.04787 41.9951 0.859619C41.9828 0.394119 41.6066 0.0178688 41.1393 0.00561876ZM33.0753 15.1116C32.2231 15.9639 31.1031 16.3909 29.9813 16.3909C28.8596 16.3909 27.7396 15.9639 26.8873 15.1116C25.1828 13.4054 25.1828 10.6299 26.8873 8.92362C28.5936 7.21737 31.3691 7.21737 33.0753 8.92362C34.7816 10.6299 34.7816 13.4071 33.0753 15.1116Z" fill="#78695E"/>
<path d="M4.7671 29.5838C2.8946 31.4563 0.32385 39.9159 0.0368504 40.8731C-0.0558996 41.1811 0.0298505 41.5154 0.2556 41.7429C0.4236 41.9109 0.64585 42.0001 0.8751 42.0001C0.9591 42.0001 1.0431 41.9879 1.1271 41.9634C2.08435 41.6764 10.5438 39.1056 12.4163 37.2331C14.5251 35.1243 14.5251 31.6926 12.4163 29.5838C10.3059 27.4751 6.87585 27.4768 4.7671 29.5838Z" fill="#78695E"/>
</g>
<defs>
<clipPath id="clip0">
<rect width="42" height="42" fill="white"/>
</clipPath>
</defs>
</svg>
