<svg width="44" height="44" viewBox="0 0 44 44" fill="none" xmlns="http://www.w3.org/2000/svg">
    <g clip-path="url(#clip0)">
    <path d="M34.9167 24.8957V13.5837C34.9167 6.46141 29.1224 0.666992 22.0001 0.666992C14.8778 0.666992 9.08341 6.46141 9.08341 13.5837V24.8957C8.18708 25.8341 6.16675 28.2782 6.16675 31.2503C6.16675 34.9877 9.3635 37.893 9.49958 38.0149C9.73692 38.2274 10.0352 38.3337 10.3334 38.3337C10.6317 38.3337 10.9299 38.2274 11.1672 38.0149C11.3033 37.893 14.5001 34.9877 14.5001 31.2503C14.5001 28.2782 12.4797 25.8341 11.5834 24.8957V21.2119C13.7039 24.0997 16.9942 26.0773 20.7501 26.4397V29.8957C19.8537 30.8341 17.8334 33.2783 17.8334 36.2503C17.8334 39.9877 21.0302 42.893 21.1662 43.0149C21.4036 43.2274 21.7018 43.3337 22.0001 43.3337C22.2983 43.3337 22.5966 43.2274 22.8339 43.0149C22.9701 42.893 26.1667 39.9877 26.1667 36.2503C26.1667 33.2783 24.1464 30.8341 23.2501 29.8957V26.4397C27.006 26.0773 30.2962 24.0997 32.4167 21.2119V24.8957C31.5204 25.8341 29.5001 28.2783 29.5001 31.2503C29.5001 34.9877 32.6967 37.893 32.8329 38.0149C33.0702 38.2274 33.3685 38.3337 33.6667 38.3337C33.965 38.3337 34.2633 38.2274 34.5006 38.0149C34.6367 37.893 37.8334 34.9877 37.8334 31.2503C37.8334 28.2783 35.8131 25.8341 34.9167 24.8957ZM28.4966 5.97024C28.9174 5.97024 29.2118 6.06391 29.3658 6.21791C29.7342 6.58624 29.7575 7.75708 28.9792 9.54249C28.7082 10.1643 28.3654 10.809 27.9611 11.4642C27.3927 10.7842 26.7781 10.1122 26.1248 9.45891C25.4716 8.80558 24.7996 8.19108 24.1195 7.62266C24.7747 7.21833 25.4193 6.87566 26.0412 6.60458C27.0802 6.15166 27.9109 5.97024 28.4966 5.97024ZM26.4644 13.5837C25.8328 14.3793 25.1259 15.1719 24.3571 15.9407C23.5883 16.7095 22.7957 17.4164 22.0001 18.0481C21.2044 17.4165 20.4118 16.7096 19.6431 15.9408C18.8743 15.1721 18.1674 14.3794 17.5357 13.5837C18.1673 12.7881 18.8742 11.9955 19.643 11.2267C20.4117 10.458 21.2044 9.75108 22.0001 9.11941C22.7957 9.75099 23.5883 10.4579 24.3571 11.2267C25.1259 11.9954 25.8328 12.788 26.4644 13.5837ZM22.0001 3.16699C23.4042 3.16699 24.7441 3.44633 25.9675 3.95224C25.6664 4.05599 25.3583 4.17499 25.0422 4.31274C24.0588 4.74149 23.0326 5.31941 22.0001 6.01958C20.9676 5.31941 19.9414 4.74149 18.9579 4.31283C18.6424 4.17533 18.3344 4.05558 18.0338 3.95183C19.2569 3.44624 20.5965 3.16699 22.0001 3.16699ZM14.6343 6.21799C14.7883 6.06391 15.0827 5.97024 15.5036 5.97024C16.0892 5.97024 16.9202 6.15166 17.9589 6.60449C18.5807 6.87558 19.2254 7.21824 19.8806 7.62258C19.2005 8.19099 18.5285 8.80558 17.8752 9.45891C17.2219 10.1122 16.6074 10.7842 16.039 11.4642C15.6347 10.8091 15.292 10.1644 15.0209 9.54258C14.2427 7.75716 14.266 6.58633 14.6343 6.21799ZM12.7292 16.6258C12.5919 16.9409 12.4719 17.2487 12.3683 17.549C11.8628 16.3262 11.5834 14.987 11.5834 13.5837C11.5834 12.18 11.8632 10.8407 12.3689 9.61758C12.4726 9.91816 12.5917 10.2259 12.7292 10.5414C13.1579 11.5249 13.7358 12.5511 14.436 13.5836C13.7358 14.6162 13.1579 15.6423 12.7292 16.6258ZM14.6344 20.9494C14.2661 20.5811 14.2427 19.4102 15.021 17.6248C15.2921 17.003 15.6347 16.3583 16.0391 15.7032C16.6075 16.3832 17.2221 17.0552 17.8754 17.7085C18.5287 18.3618 19.2007 18.9763 19.8807 19.5447C19.2256 19.9491 18.5808 20.2917 17.959 20.5628C16.1735 21.3411 15.0027 21.3177 14.6344 20.9494ZM22.0001 24.0003C20.5969 24.0003 19.258 23.7209 18.0353 23.2155C18.3354 23.1119 18.6431 22.9917 18.9579 22.8545C19.9414 22.4257 20.9676 21.8479 22.0001 21.1477C23.0327 21.8479 24.0587 22.4258 25.0423 22.8545C25.3574 22.9918 25.6653 23.112 25.9654 23.2156C24.7425 23.721 23.4033 24.0003 22.0001 24.0003ZM29.3658 20.9494C28.9974 21.3177 27.8266 21.3411 26.0412 20.5628C25.4194 20.2917 24.7747 19.9491 24.1195 19.5447C24.7996 18.9763 25.4715 18.3617 26.1248 17.7085C26.7782 17.0552 27.3927 16.3832 27.9612 15.7032C28.3655 16.3584 28.7082 17.0031 28.9792 17.6249C29.7575 19.4102 29.7342 20.581 29.3658 20.9494ZM31.6317 17.55C31.528 17.2493 31.4084 16.9414 31.2709 16.6258C30.8422 15.6423 30.2643 14.6162 29.5642 13.5837C30.2643 12.5511 30.8422 11.525 31.2709 10.5415C31.4082 10.2265 31.5282 9.91883 31.6317 9.61874C32.1372 10.8415 32.4167 12.1804 32.4167 13.5837C32.4167 14.9873 32.1374 16.3269 31.6317 17.55Z" fill="#78695E"/>
    </g>
    <defs>
    <clipPath id="clip0">
    <rect width="42.6667" height="42.6667" fill="white" transform="translate(0.666748 0.666992)"/>
    </clipPath>
    </defs>
</svg>
