<svg width="42" height="42" viewBox="0 0 42 42" fill="none" xmlns="http://www.w3.org/2000/svg">
<path d="M0 25.0195V29.9414C0 32.4332 2.01994 34.4531 4.51172 34.4531H6.97266C7.6522 34.4531 8.20312 33.9022 8.20312 33.2227V20.5078H4.51172C2.01994 20.5078 0 22.5278 0 25.0195Z" fill="#78695E"/>
<path d="M28.793 24.1992V17.6367C28.793 16.0536 27.505 14.7656 25.9219 14.7656H16.0781C14.495 14.7656 13.207 16.0536 13.207 17.6367V24.1992C13.207 25.7823 14.495 27.0703 16.0781 27.0703H18.9139L23.4935 30.8867C23.719 31.0746 23.9988 31.1719 24.2814 31.1719C24.4584 31.1719 24.6366 31.1336 24.8031 31.0557C25.2355 30.8532 25.5117 30.4188 25.5117 29.9414V27.0703H25.9219C27.505 27.0703 28.793 25.7823 28.793 24.1992ZM22.6406 22.1484H19.3594C18.6798 22.1484 18.1289 21.5975 18.1289 20.918C18.1289 20.2384 18.6798 19.6875 19.3594 19.6875H22.6406C23.3202 19.6875 23.8711 20.2384 23.8711 20.918C23.8711 21.5975 23.3202 22.1484 22.6406 22.1484Z" fill="#78695E"/>
<path d="M16.4883 39.5391C16.4883 40.8982 17.59 42 18.9492 42H23.0508C24.41 42 25.5117 40.8982 25.5117 39.5391C25.5117 38.1799 24.41 37.0781 23.0508 37.0781H18.9492C17.59 37.0781 16.4883 38.1799 16.4883 39.5391Z" fill="#78695E"/>
<path d="M34.6185 36.9141V37.1602C34.6185 37.8386 34.0665 38.3906 33.3881 38.3906H27.8373C27.9258 38.7594 27.974 39.1436 27.974 39.5391C27.974 39.9936 27.9108 40.4334 27.7949 40.8516H33.3881C35.4235 40.8516 37.0795 39.1956 37.0795 37.1602V36.9141H34.6185Z" fill="#78695E"/>
<path d="M37.4883 20.5078H33.7969V33.2227C33.7969 33.9022 34.3478 34.4531 35.0273 34.4531H37.4883C39.9801 34.4531 42 32.4332 42 29.9414V25.0195C42 22.5278 39.9801 20.5078 37.4883 20.5078Z" fill="#78695E"/>
<path d="M33.529 5.18971C30.1824 1.84308 25.7329 0 21 0C16.2671 0 11.8176 1.84308 8.47096 5.18971C5.12433 8.53634 3.28125 12.9859 3.28125 17.7188V18.0469H8.20312V17.7188C8.20312 10.6625 13.9438 4.92188 21 4.92188C28.0562 4.92188 33.7969 10.6625 33.7969 17.7188V18.0469H38.7188V17.7188C38.7188 12.9859 36.8757 8.53634 33.529 5.18971Z" fill="#78695E"/>
</svg>
