<svg width="42" height="42" viewBox="0 0 42 42" fill="none" xmlns="http://www.w3.org/2000/svg">
    <path d="M24.5 29.7497H17.5C17.0359 29.7497 16.5908 29.5654 16.2626 29.2372C15.9344 28.909 15.75 28.4639 15.75 27.9997V25.9579L0.301656 18.936C0.196875 18.8888 0.0977812 18.8341 0 18.7783V36.7497C0 37.2139 0.184374 37.659 0.512563 37.9872C0.840752 38.3154 1.28587 38.4997 1.75 38.4997H40.25C40.7141 38.4997 41.1592 38.3154 41.4874 37.9872C41.8156 37.659 42 37.2139 42 36.7497V18.7785C41.9024 18.835 41.8031 18.8879 41.6988 18.9358L26.25 25.9581V27.9997C26.25 28.4639 26.0656 28.909 25.7374 29.2372C25.4092 29.5654 24.9641 29.7497 24.5 29.7497Z" fill="#78695E"/>
    <path d="M17.5 21H24.5C24.9641 21 25.4092 21.1844 25.7374 21.5126C26.0656 21.8408 26.25 22.2859 26.25 22.75V24.036L40.9743 17.3423C41.28 17.2033 41.5393 16.9792 41.7212 16.6969C41.9031 16.4146 41.9998 16.0859 42 15.75V8.75C42 8.28587 41.8156 7.84075 41.4874 7.51256C41.1592 7.18438 40.7141 7 40.25 7H28V1.75C28 1.28587 27.8156 0.840752 27.4874 0.512563C27.1592 0.184375 26.7141 0 26.25 0L15.75 0C15.2859 0 14.8408 0.184375 14.5126 0.512563C14.1844 0.840752 14 1.28587 14 1.75V7H1.75C1.28587 7 0.840752 7.18438 0.512563 7.51256C0.184374 7.84075 1.49152e-09 8.28587 1.49152e-09 8.75L1.49152e-09 15.75C-1.38679e-05 16.086 0.0966999 16.4149 0.278588 16.6974C0.460476 16.9799 0.719848 17.2041 1.02572 17.3432L15.75 24.036V22.75C15.75 22.2859 15.9344 21.8408 16.2626 21.5126C16.5908 21.1844 17.0359 21 17.5 21ZM17.5 3.5H24.5V7H17.5V3.5Z" fill="#78695E"/>
</svg>
