<svg width="42" height="42" viewBox="0 0 42 42" fill="none" xmlns="http://www.w3.org/2000/svg">
    <path d="M30.8438 15.832C31.6139 15.832 32.2383 15.2077 32.2383 14.4375C32.2383 13.6673 31.6139 13.043 30.8438 13.043C30.0736 13.043 29.4492 13.6673 29.4492 14.4375C29.4492 15.2077 30.0736 15.832 30.8438 15.832Z" fill="#78695E"/>
    <path d="M15.0117 15.8613V18.457H17.6074C17.2115 17.2289 16.2399 16.2573 15.0117 15.8613Z" fill="#78695E"/>
    <path d="M32.3925 18.7944C31.9941 18.4758 31.4297 18.293 30.8438 18.293C29.7513 18.293 28.793 18.9446 28.793 19.6875V23.707H32.8945V19.6875C32.8945 19.26 32.5799 18.9445 32.3925 18.7944Z" fill="#78695E"/>
    <path d="M12.5508 19.6875V15.8613C10.9345 16.3824 9.76172 17.9002 9.76172 19.6875C9.76172 21.9039 11.5648 23.707 13.7812 23.707C15.5685 23.707 17.0864 22.5342 17.6074 20.918H13.7812C13.1017 20.918 12.5508 20.3671 12.5508 19.6875Z" fill="#78695E"/>
    <path d="M36.2578 7.79297H5.74219C5.06371 7.79297 4.51172 8.34496 4.51172 9.02344V27.7266C4.51172 28.405 5.06371 28.957 5.74219 28.957H36.2578C36.9363 28.957 37.4883 28.405 37.4883 27.7266V9.02344C37.4883 8.34496 36.9363 7.79297 36.2578 7.79297ZM13.7812 26.168C10.2079 26.168 7.30078 23.2609 7.30078 19.6875C7.30078 16.1141 10.2079 13.207 13.7812 13.207C17.3546 13.207 20.2617 16.1141 20.2617 19.6875C20.2617 23.2609 17.3546 26.168 13.7812 26.168ZM35.3555 24.9375C35.3555 25.617 34.8045 26.168 34.125 26.168H27.5625C26.883 26.168 26.332 25.617 26.332 24.9375V19.6875C26.332 18.5541 26.9076 17.5334 27.8217 16.8274C27.3007 16.1699 26.9883 15.3398 26.9883 14.4375C26.9883 12.3116 28.7178 10.582 30.8438 10.582C32.9697 10.582 34.6992 12.3116 34.6992 14.4375C34.6992 15.3387 34.3876 16.168 33.8675 16.8252C33.8882 16.8412 33.9095 16.8564 33.9298 16.8728C34.8358 17.5976 35.3555 18.6235 35.3555 19.6875V24.9375Z" fill="#78695E"/>
    <path d="M22.2305 34.4916V31.418H19.7695V34.4916C18.2454 35.0064 17.1445 36.4489 17.1445 38.1445C17.1445 40.2705 18.8741 42 21 42C23.1259 42 24.8555 40.2705 24.8555 38.1445C24.8555 36.4489 23.7546 35.0064 22.2305 34.4916ZM21 39.5391C20.231 39.5391 19.6055 38.9135 19.6055 38.1445C19.6055 37.3756 20.231 36.75 21 36.75C21.769 36.75 22.3945 37.3756 22.3945 38.1445C22.3945 38.9135 21.769 39.5391 21 39.5391Z" fill="#78695E"/>
    <path d="M38.3086 0H3.69141C1.65596 0 0 1.65596 0 3.69141V4.10156C0 5.6682 0.98134 7.009 2.36119 7.544V7.54409C2.93262 6.24323 4.23265 5.33203 5.74219 5.33203H36.2578C37.7674 5.33203 39.0674 6.24323 39.6388 7.54409C39.6388 7.54409 39.6388 7.54409 39.6388 7.544C41.0187 7.009 42 5.6682 42 4.10156V3.69141C42 1.65596 40.344 0 38.3086 0Z" fill="#78695E"/>
</svg>
