<svg width="44" height="44" viewBox="0 0 44 44" fill="none" xmlns="http://www.w3.org/2000/svg">
    <g clip-path="url(#clip0)">
    <path d="M1.41699 42.5941C1.41732 43.0026 1.7487 43.3337 2.15723 43.334H5.26139C7.02702 36.1924 9.83105 31.3984 13.8685 28.7943C12.4971 28.2122 11.0251 27.9036 9.53548 27.8857C6.77767 27.9346 4.08724 28.7474 1.76367 30.2337C1.54915 30.3691 1.41862 30.6042 1.41699 30.8577V42.5941Z" fill="#78695E"/>
    <path d="M42.5673 33.9003L40.5523 25.8574C39.3827 21.1972 36.2473 16.9283 34.373 14.3818C33.9316 13.7786 33.552 13.2627 33.2753 12.8493C32.9394 12.3454 32.4332 11.4974 31.7724 10.3268C30.8193 8.6468 29.4856 7.21321 27.8782 6.14192L22.789 2.75814C22.1826 2.35352 21.4694 2.1377 20.7402 2.13868H20.1591C18.7946 2.13607 17.5403 2.88737 16.8987 4.0918C16.4681 4.93978 16.4935 5.94791 16.9664 6.77311C17.6601 8.01561 18.8512 9.49478 20.6035 9.49478C22.3007 9.44042 23.9957 9.65266 25.6272 10.124C25.9759 10.2396 26.29 10.4401 26.5423 10.7073C29.4023 13.7695 29.1116 17.2464 28.8557 20.3138C28.7822 21.165 28.7174 21.969 28.7174 22.7363C28.7379 23.7858 28.874 24.8297 29.1236 25.8496C29.2747 26.5146 29.1087 27.2122 28.6741 27.7379C30.0947 28.3329 31.4518 29.0689 32.7252 29.9352C32.943 30.0823 33.0657 30.3346 33.0475 30.5969C33.0289 30.859 32.8717 31.0914 32.6353 31.2066C32.399 31.3219 32.1191 31.302 31.9013 31.1549C30.2145 29.9915 28.3609 29.0911 26.4039 28.4843C26.3906 28.4807 26.3775 28.4843 26.3642 28.4784C25.194 28.1093 23.9768 27.9098 22.75 27.8857C22.1969 27.8857 21.6656 27.912 21.1464 27.954C20.8056 27.9833 20.4768 28.0322 20.1474 28.08C19.9905 28.1018 19.8304 28.1187 19.6764 28.1445C19.2692 28.218 18.8724 28.3066 18.4834 28.4088C18.4244 28.4241 18.3636 28.4374 18.3047 28.4537C17.8756 28.5722 17.4586 28.7096 17.054 28.8655L17.0224 28.8772C12.0902 30.7906 8.77311 35.5253 6.78027 43.3339H13.0478C13.4394 43.3352 13.8154 43.1796 14.0918 42.9019L14.5888 42.4061C14.984 42.0097 15.5713 41.8733 16.1006 42.0552C18.7477 42.911 21.513 43.3423 24.2949 43.3339C36.3967 43.3339 41.0061 37.4872 42.426 34.9735C42.6099 34.6474 42.6604 34.2626 42.5673 33.9003Z" fill="#78695E"/>
    </g>
    <defs>
    <clipPath id="clip0">
    <rect width="42.6667" height="42.6667" fill="white" transform="translate(0.666504 0.666992)"/>
    </clipPath>
    </defs>
</svg>
